<?xml version="1.0" encoding="UTF-8" standalone="no"?>
<!-- Created with Inkscape (http://www.inkscape.org/) -->

<svg
   width="135.46666mm"
   height="135.46667mm"
   viewBox="0 0 135.46666 135.46667"
   version="1.1"
   id="svg1"
   xmlns="http://www.w3.org/2000/svg"
   xmlns:svg="http://www.w3.org/2000/svg">
  <defs
     id="defs1" />
  <path
     d="m 15.266458,51.064586 2.487084,4.339167 c 2.196041,3.836458 5.794375,6.6675 10.054166,7.884583 l 15.319375,4.365625 C 47.677917,68.95042 50.8,73.104378 50.8,77.84042 v 10.556872 c 0,2.91042 1.640417,5.55625 4.233342,6.85271 2.59291,1.29646 4.23333,3.94229 4.23333,6.852708 v 10.31875 c 0,4.1275 3.94229,7.11729 7.91104,5.97958 4.25979,-1.21708 7.56709,-4.63021 8.65188,-8.94292 l 0.74083,-2.96333 c 1.11125,-4.47146 4.02167,-8.307918 8.01688,-10.583328 l 2.14312,-1.21709 c 3.96875,-2.24895 6.40292,-6.48229 6.40292,-11.03312 v -2.196041 c 0,-3.360208 -1.34938,-6.588125 -3.73063,-8.969375 l -1.03187,-1.031875 c -2.38125,-2.38125 -5.60917,-3.730625 -8.96938,-3.730625 h -11.40354 c -2.93687,0 -5.84729,-0.767291 -8.41375,-2.2225 l -9.12813,-5.212291 c -1.137709,-0.661459 -2.010834,-1.719792 -2.434167,-2.963334 -0.846667,-2.54 0.291042,-5.291666 2.69875,-6.482291 l 1.561042,-0.79375 c 1.746255,-0.873125 3.783545,-1.031875 5.635635,-0.396875 l 6.13833,2.037291 c 2.16958,0.714375 4.55083,-0.105833 5.79437,-1.984375 1.24355,-1.852083 1.11125,-4.312708 -0.3175,-6.0325 l -3.59833,-4.312708 c -2.64583,-3.175 -2.61937,-7.805208 0.0794,-10.927292 l 4.15396,-4.841875 c 2.32834,-2.725208 2.69875,-6.614583 0.92605,-9.710208 l -0.635,-1.11125 c -0.92605,-0.05292 -1.82563,-0.07937 -2.75167,-0.07937 -24.55334,0 -45.376049,16.113125 -52.440424,38.364583 z m 107.500212,16.66875 c 0,-9.736666 -2.54,-18.89125 -6.985,-26.855208 l -6.77334,2.725208 c -4.15396,1.666875 -6.29708,6.297084 -4.89479,10.530417 l 4.47146,13.414375 c 0.92604,2.751667 3.175,4.841875 5.97958,5.529792 l 7.69938,1.931458 c 0.3175,-2.38125 0.47625,-4.815417 0.47625,-7.276042 z m -122.76667026347178,0 a 67.733336,67.733336 0 1 1 135.46667026347176,0 67.733336,67.733336 0 1 1 -135.46667026347176,0 z"
     id="path1"
     style="stroke-width:0.265;stroke-dasharray:none" />
</svg>
