<?xml version="1.0" encoding="UTF-8" standalone="no"?>
<svg
   viewBox="0 0 104.77126 123.09606"
   version="1.1"
   id="svg3"
   width="104.77126"
   height="123.09606"
   xmlns="http://www.w3.org/2000/svg"
   xmlns:svg="http://www.w3.org/2000/svg">
  <defs
     id="defs2">
    <linearGradient
       id="a"
       x1="33.549854"
       x2="96.176033"
       y1="-3.0463831"
       y2="122.83678"
       gradientTransform="matrix(-0.92256934,0,0,1.0839294,306.22806,0.69301834)"
       gradientUnits="userSpaceOnUse">
      <stop
         offset="0"
         stop-color="#FF7854"
         id="stop1"
         style="stop-color:#4cbb17;stop-opacity:1;" />
      <stop
         offset="1"
         stop-color="#FD267D"
         id="stop2"
         style="stop-color:#1a6825;stop-opacity:1;" />
    </linearGradient>
  </defs>
  <g
     id="g10"
     transform="translate(-201.22806,-0.64857899)">
    <path
       fill="url(#a)"
       d="m 274.72806,50.293018 c -23.5,-8.1 -27.5,-29.2 -24.5,-48.5999997 0,-0.69999996 -0.6,-1.19999996 -1.2,-0.99999996 -22.5,10.99999966 -47.8,34.99999966 -47.8,70.99999966 0,27.6 21.4,52.000002 52.5,52.000002 a 50,50 0 0 0 28.2,-92.700002 c -0.6,-0.4 -1.4,0 -1.4,0.7 -0.3,3.7 -1.3,13 -5.4,18.6 z"
       id="path2"
       style="fill:url(#a);fill-rule:evenodd" />
    <path
       style="fill:#000000;stroke:#009505;stroke-width:1.70079;stroke-linecap:round;stroke-dasharray:none;stroke-opacity:1"
       d="M 254.74218,3.2455921 272.58806,43.690589"
       id="path3" />
    <path
       style="fill:none;stroke:#009505;stroke-width:1.70079;stroke-linecap:round;stroke-dasharray:none;stroke-opacity:1"
       d="m 252.4911,16.168257 3.70284,-9.0899518 10.2343,3.5470258"
       id="path6" />
    <path
       style="fill:none;stroke:#009505;stroke-width:1.70079;stroke-linecap:round;stroke-dasharray:none;stroke-opacity:1"
       d="m 260.51041,17.147908 -2.53483,14.75261"
       id="path7" />
    <path
       style="fill:none;stroke:#009505;stroke-width:1.70079;stroke-linecap:round;stroke-dasharray:none;stroke-opacity:1"
       d="m 260.77207,17.580006 12.6207,8.026275"
       id="path8" />
    <path
       style="fill:none;stroke:#009505;stroke-width:1.70079;stroke-linecap:round;stroke-dasharray:none;stroke-opacity:1"
       d="m 264.7346,38.626693 0.8519,-9.840045 7.77059,5.561156"
       id="path9" />
  </g>
</svg>
