<?xml version="1.0" encoding="UTF-8" standalone="no"?>
<!-- Created with Inkscape (http://www.inkscape.org/) -->

<svg
   width="97.154984mm"
   height="131.51016mm"
   viewBox="0 0 97.154984 131.51016"
   version="1.1"
   id="svg1"
   xmlns="http://www.w3.org/2000/svg"
   xmlns:svg="http://www.w3.org/2000/svg">
  <defs
     id="defs1" />
  <g
     id="layer1"
     transform="translate(-50.862077,-48.961665)">
    <path
       id="path1"
       style="fill:#ffffff;fill-opacity:1;stroke:none;stroke-width:0.539134;stroke-linecap:round"
       d="m 119.75808,113.55725 a 39.394799,40.428418 0 0 0 -16.13497,24.66882 39.394799,40.428418 0 0 0 28.24577,-6.51738 39.394799,40.428418 0 0 0 16.14818,-24.7389 39.394799,40.428418 0 0 0 -28.25898,6.58746 z" />
    <path
       style="fill:none;fill-opacity:1;stroke:none;stroke-width:0.450001;stroke-linecap:round"
       d="m 63.369123,180.47182 c 14.306458,-6.94148 24.82484,-21.18472 27.250162,-36.90021 1.107687,-7.17754 0.620821,-14.48976 0.591434,-21.75221 -0.02939,-7.26245 0.442255,-14.70428 3.315713,-21.37416 2.178389,-5.056485 5.638028,-9.437285 9.078838,-13.735449 3.44082,-4.298163 6.93979,-8.638779 9.21699,-13.651539 3.40696,-7.499664 3.82179,-16.309984 1.13457,-24.096588"
       id="path2" />
    <path
       style="fill:none;fill-opacity:1;stroke:#ffffff;stroke-width:5;stroke-linecap:round;stroke-dasharray:none;stroke-opacity:1"
       d="m 82.933899,169.41463 c 7.281482,-2.86216 13.53346,-8.27008 17.414501,-15.06342 3.88104,-6.79334 5.36452,-14.9255 4.13214,-22.65164 C 103.02775,122.59161 98.046544,114.495 94.702925,105.89932 88.823168,90.783811 88.084833,73.720802 92.636929,58.153895"
       id="path3"
       transform="matrix(0.7993794,0,-0.01353603,0.70512755,23.058779,40.794496)" />
    <path
       id="path4"
       style="fill:#ffffff;fill-opacity:1;stroke:none;stroke-width:0.531713;stroke-linecap:round"
       d="M 79.067258,96.786617 A 38.421475,40.319262 0 0 0 50.862075,95.406094 38.421475,40.319262 0 0 0 70.430626,116.76641 38.421475,40.319262 0 0 0 98.699448,118.1223 38.421475,40.319262 0 0 0 79.067258,96.786617 Z" />
    <path
       id="path5"
       style="fill:#ffffff;fill-opacity:1;stroke:none;stroke-width:0.450001;stroke-linecap:round"
       d="M 87.275258,62.639011 A 33.310368,33.310368 0 0 0 64.621608,53.361718 33.310368,33.310368 0 0 0 74.684223,75.67742 33.310368,33.310368 0 0 0 97.396676,84.954049 33.310368,33.310368 0 0 0 87.275258,62.639011 Z" />
    <path
       id="path6"
       style="fill:#ffffff;fill-opacity:1;stroke:none;stroke-width:0.450001;stroke-linecap:round"
       d="M 119.48548,78.609492 A 33.310368,33.310368 0 0 0 131.82526,57.467446 33.310368,33.310368 0 0 0 108.32629,64.326394 33.310368,33.310368 0 0 0 95.978976,85.526755 33.310368,33.310368 0 0 0 119.48548,78.609492 Z" />
  </g>
</svg>
