<?xml version="1.0" encoding="UTF-8" standalone="no"?>
<!-- Created with Inkscape (http://www.inkscape.org/) -->

<svg
   width="169.32759mm"
   height="135.46667mm"
   viewBox="0 0 169.32759 135.46667"
   version="1.1"
   id="svg1"
   xmlns="http://www.w3.org/2000/svg"
   xmlns:svg="http://www.w3.org/2000/svg">
  <defs
     id="defs1" />
  <path
     d="m 55.036229,93.133336 c 30.40063,0 55.033341,-20.84917 55.033341,-46.56667 C 110.06957,20.849166 85.436859,-6.3336396e-7 55.036229,-6.3336396e-7 24.635609,-6.3336396e-7 0.00289892,20.849166 0.00289892,46.566666 c 0,10.212916 3.88937498,19.658541 10.47750008,27.357916 -0.9260421,2.487084 -2.3018751,4.683125 -3.7570831,6.535209 -1.27,1.640416 -2.566459,2.910416 -3.518959,3.783545 -0.47625,0.42333 -0.873125,0.76729 -1.137708,0.97895 -0.132292,0.10584 -0.238125,0.18521 -0.291042,0.21167 l -0.05292,0.0529 v 0 0 c -1.45520798,1.08479 -2.09020798,2.98979 -1.50812498,4.70958 0.582084,1.7198 2.19604198,2.93688 4.02166698,2.93688 5.7679171,0 11.5887471,-1.48167 16.4306271,-3.30729 2.43416,-0.92604 4.70958,-1.95792 6.69396,-3.01625 8.1227,4.02166 17.56833,6.32354 27.67541,6.32354 z m 63.500001,-46.56667 c 0,29.712708 -26.220211,52.09646 -57.282291,54.768754 6.42938,19.685 27.75479,34.13125 53.048961,34.13125 10.10708,0 19.55271,-2.30188 27.70187,-6.32355 1.98438,1.05834 4.23334,2.09021 6.6675,3.01625 4.84188,1.82563 10.66271,3.3073 16.43063,3.3073 1.82562,0 3.46604,-1.19063 4.02167,-2.93688 0.55562,-1.74625 -0.0529,-3.65125 -1.53459,-4.73604 v 0 0 l -0.0529,-0.0529 c -0.0529,-0.0529 -0.15875,-0.10583 -0.29105,-0.21166 -0.26458,-0.21167 -0.66145,-0.52917 -1.1377,-0.97896 -0.9525,-0.87313 -2.24896,-2.14313 -3.51896,-3.78354 -1.45521,-1.85209 -2.83104,-4.07459 -3.75708,-6.53521 6.58812,-7.67292 10.4775,-17.118544 10.4775,-27.357924 0,-24.553329 -22.46313,-44.68812 -50.95875,-46.43437 0.10583,1.349375 0.15875,2.725208 0.15875,4.101041 z"
     id="path1"
     style="stroke-width:0.264583" />
</svg>
