<?xml version="1.0" encoding="UTF-8" standalone="no"?>
<!-- Created with Inkscape (http://www.inkscape.org/) -->

<svg
   width="135.46667mm"
   height="135.50346mm"
   viewBox="0 0 135.46667 135.50346"
   version="1.1"
   id="svg1"
   xmlns="http://www.w3.org/2000/svg"
   xmlns:svg="http://www.w3.org/2000/svg">
  <defs
     id="defs1" />
  <path
     d="M 105.56875,101.67133 C 99.721459,91.511326 88.741249,84.685076 76.199999,84.685076 h -16.93333 c -12.541248,0 -23.521458,6.82625 -29.368748,16.986254 9.31333,10.37166 22.807078,16.88041 37.835418,16.88041 15.02833,0 28.52208,-6.53521 37.835411,-16.88041 z M 3.5180849e-6,67.751739 a 67.733335,67.733335 0 1 1 135.4666664819151,0 67.733335,67.733335 0 1 1 -135.4666664819151,0 z M 67.733339,71.985073 a 19.05,19.05 0 1 0 0,-38.1 19.05,19.05 0 1 0 0,38.1 z"
     id="path1"
     style="stroke-width:0.264583" />
</svg>
